<?xml version="1.0" encoding="utf-8"?>
<!-- Generator: Adobe Illustrator 23.0.6, SVG Export Plug-In . SVG Version: 6.00 Build 0)  -->
<svg version="1.1" xmlns="http://www.w3.org/2000/svg" xmlns:xlink="http://www.w3.org/1999/xlink" x="0px" y="0px"
	 viewBox="0 0 640 480" style="enable-background:new 0 0 640 480;" xml:space="preserve">
<style type="text/css">
	.st0{fill:url(#SVGID_1_);}
	.st1{fill:none;}
	.st2{fill:none;stroke:#000000;stroke-width:10;stroke-linecap:round;stroke-linejoin:round;stroke-miterlimit:10;}
	.st3{stroke:#000000;stroke-width:10;stroke-linecap:round;stroke-linejoin:round;stroke-miterlimit:10;}
	.st4{fill:#0000FF;}
	.st5{fill:#FF00FF;stroke:#00FFFF;stroke-miterlimit:10;}
</style>
<g id="Layer_2">
	<linearGradient id="SVGID_1_" gradientUnits="userSpaceOnUse" x1="-3.5882" y1="240" x2="640" y2="240">
		<stop  offset="0" style="stop-color:#EED387"/>
		<stop  offset="0.5" style="stop-color:#E6C14C"/>
		<stop  offset="1" style="stop-color:#E1B724"/>
	</linearGradient>
	<rect x="-3.59" class="st0" width="643.59" height="480"/>
</g>
<g id="Layer_1">
	<line class="st1" x1="-1273.18" y1="142.94" x2="-738.12" y2="142.94"/>
	<g>
		<path d="M-1272.18,313.44h524.47H-1272.18z"/>
		<path class="st2" d="M-1272.18,313.44h524.47H-1272.18z"/>
		<path d="M-1272.18,313.44h524.47H-1272.18z"/>
	</g>
	<g>
		<path d="M-1272.18,156.28h524.47H-1272.18z"/>
		<path class="st2" d="M-1272.18,156.28h524.47H-1272.18z"/>
		<path d="M-1272.18,156.28h524.47H-1272.18z"/>
	</g>
	<g>
		<path d="M-887.76,466.65V12.41V466.65z"/>
		<path class="st2" d="M-887.76,466.65V12.41V466.65z"/>
		<path d="M-887.76,466.65V12.41V466.65z"/>
	</g>
	<g>
		<path d="M-1103.06,466.65V12.41V466.65z"/>
		<path class="st2" d="M-1103.06,466.65V12.41V466.65z"/>
		<path d="M-1103.06,466.65V12.41V466.65z"/>
	</g>
	<g>
		<line class="st3" x1="-1036.36" y1="193.25" x2="-956.25" y2="273.36"/>
		<line class="st3" x1="-1041.68" y1="278.68" x2="-954.08" y2="191.08"/>
	</g>
	<g>
		<line class="st3" x1="-829.98" y1="350.37" x2="-749.87" y2="430.48"/>
		<line class="st3" x1="-835.3" y1="435.8" x2="-747.71" y2="348.2"/>
	</g>
	<g>
		<line class="st3" x1="-1250.11" y1="36.04" x2="-1170" y2="116.15"/>
		<line class="st3" x1="-1255.43" y1="121.48" x2="-1167.83" y2="33.88"/>
	</g>
	<circle class="st2" cx="-791.5" cy="84.35" r="52.72"/>
	<circle class="st2" cx="-1206.12" cy="400.92" r="52.72"/>
	<rect x="7" y="245.35" class="st4" width="18" height="182.12"/>
	<rect x="616.35" y="51.88" class="st4" width="18" height="182.12"/>
	<circle class="st5" cx="387.12" cy="188.18" r="10.59"/>
</g>
</svg>
