<?xml version="1.0" encoding="utf-8"?>
<!-- Generator: Adobe Illustrator 23.0.6, SVG Export Plug-In . SVG Version: 6.00 Build 0)  -->
<svg version="1.1" id="Layer_1" xmlns="http://www.w3.org/2000/svg" xmlns:xlink="http://www.w3.org/1999/xlink" x="0px" y="0px"
	 viewBox="0 0 640 480" style="enable-background:new 0 0 640 480;" xml:space="preserve">
<style type="text/css">
	.st0{fill:none;}
	.st1{fill:none;stroke:#000000;stroke-width:10;stroke-linecap:round;stroke-linejoin:round;stroke-miterlimit:10;}
	.st2{stroke:#000000;stroke-width:10;stroke-linecap:round;stroke-linejoin:round;stroke-miterlimit:10;}
</style>
<line class="st0" x1="46.82" y1="142.94" x2="581.88" y2="142.94"/>
<g>
	<path d="M47.82,313.44h524.47H47.82z"/>
	<path class="st1" d="M47.82,313.44h524.47H47.82z"/>
	<path d="M47.82,313.44h524.47H47.82z"/>
</g>
<g>
	<path d="M47.82,156.28h524.47H47.82z"/>
	<path class="st1" d="M47.82,156.28h524.47H47.82z"/>
	<path d="M47.82,156.28h524.47H47.82z"/>
</g>
<g>
	<path d="M432.24,466.65V12.41V466.65z"/>
	<path class="st1" d="M432.24,466.65V12.41V466.65z"/>
	<path d="M432.24,466.65V12.41V466.65z"/>
</g>
<g>
	<path d="M216.94,466.65V12.41V466.65z"/>
	<path class="st1" d="M216.94,466.65V12.41V466.65z"/>
	<path d="M216.94,466.65V12.41V466.65z"/>
</g>
<g>
	<line class="st2" x1="283.64" y1="193.25" x2="363.75" y2="273.36"/>
	<line class="st2" x1="278.32" y1="278.68" x2="365.92" y2="191.08"/>
</g>
<g>
	<line class="st2" x1="490.02" y1="350.37" x2="570.13" y2="430.48"/>
	<line class="st2" x1="484.7" y1="435.8" x2="572.29" y2="348.2"/>
</g>
<g>
	<line class="st2" x1="69.89" y1="36.04" x2="150" y2="116.15"/>
	<line class="st2" x1="64.57" y1="121.48" x2="152.17" y2="33.88"/>
</g>
<circle class="st1" cx="528.5" cy="84.35" r="52.72"/>
<circle class="st1" cx="113.88" cy="400.92" r="52.72"/>
</svg>
